<svg xmlns="http://www.w3.org/2000/svg" viewBox="0 0 12.38 10.86"><defs><style>.cls-1{fill:#000002;fill-rule:evenodd;}</style></defs><g id="Layer_2" data-name="Layer 2"><g id="Layer_1-2" data-name="Layer 1"><path class="cls-1" d="M5.94,9.24,6,8.2c0-.29.09-.73.12-1a10.41,10.41,0,0,1,1.57.89L10.8,9.94c.27.16,1.41.88,1.58.92l-4-6.31c-.39-.67-1-1.61-1.49-2.33a3.18,3.18,0,0,0-.4-.57L6.28,3.1a8,8,0,0,1-.22,1.44,2.45,2.45,0,0,1-.37-.26L5.3,4l-.74-.57c-.26-.21-.5-.37-.75-.57S3.3,2.47,3,2.26L1.56,1.12C1.3.91,1.06.75.81.55A4.82,4.82,0,0,0,0,0C.05.22,2.25,3.58,2.56,4.05L5.71,9C5.88,9.23,5.81,9.2,5.94,9.24Z"/></g></g></svg>