<svg xmlns="http://www.w3.org/2000/svg" viewBox="0 0 101.13 28.7"><defs><style>.cls-1{fill:#fff;fill-rule:evenodd;}</style></defs><g id="Layer_2" data-name="Layer 2"><g id="Layer_1-2" data-name="Layer 1"><path class="cls-1" d="M0,12.38a12.48,12.48,0,0,0,2.77,7.85,4.87,4.87,0,0,0,.35.42,2.93,2.93,0,0,1,.38.41,12.72,12.72,0,0,0,1.63,1.41,11.88,11.88,0,0,0,6.79,2.34,12,12,0,0,0,2.93-.24c.27-.05.46-.12.7-.14a1.76,1.76,0,0,0-.38-.73c-.16-.24-.27-.41-.43-.67-.29-.48-.62-.91-.88-1.39a7.64,7.64,0,0,1-1.68.13,9.36,9.36,0,0,1-7.54-4.06A6.54,6.54,0,0,1,4.19,17,9.18,9.18,0,0,1,3,12.38a9.34,9.34,0,0,1,2.19-6l.56-.61a9,9,0,0,1,2.76-1.9A9.35,9.35,0,0,1,20.81,8.41a9.29,9.29,0,0,1,.65,6.12c-.45,2.08-.77.45,1.08,3.55a2.19,2.19,0,0,0,.46.64,5.45,5.45,0,0,1,.32-.64,12.33,12.33,0,0,0,.25-10.81,11.17,11.17,0,0,0-1.1-1.94L21.11,3.64A12.46,12.46,0,0,0,9.47.34,12.19,12.19,0,0,0,6.23,1.63c-.35.21-.6.39-.94.61a12.55,12.55,0,0,0-5,7.35A14.13,14.13,0,0,0,0,12.38Z"/><path class="cls-1" d="M80.79,11.34h-1.1V8.62h1.75a1.3,1.3,0,0,1,1.43,1.62c-.17.92-1,1.1-2.08,1.1Zm-4.15,7.13h3V13.61c1.66,0,1.91-.08,3,2l1.25,2.83h3.37L85.86,15.4a10.59,10.59,0,0,0-.73-1.47c-.64-1-.87-.85-1.1-1.17a3.13,3.13,0,0,0,2-2.65,3.16,3.16,0,0,0-1.12-2.77,4,4,0,0,0-2.51-1H76.64Z"/><path class="cls-1" d="M27.15,13.09a5.27,5.27,0,0,0,1.63,4.19c2.64,2.23,10.55,2.38,10.55-3.93v-7h-3v6.41c0,1.44-.37,2.45-1.53,3-1.74.83-4.49,0-4.49-2.29V6.35H27.15Z"/><path class="cls-1" d="M94.07,9.33,96,13.93H92.32l1.73-4.56,0,0Zm-6.74,9.14h3.31l.84-2.34h5.44a7.61,7.61,0,0,0,.45,1.17l.46,1.17h3.3L96.45,7.86c-.24-.53-.44-1-.69-1.51H92.19c0,.29-1,2.57-1.18,3Z"/><path class="cls-1" d="M18.21,26.24l.14-1.6c.06-.44.14-1.11.18-1.57a15.18,15.18,0,0,1,2.39,1.36l4.71,2.87c.42.25,2.16,1.34,2.42,1.4l-6.17-9.63c-.61-1-1.61-2.47-2.28-3.56a5,5,0,0,0-.62-.87l-.25,2.22a11.78,11.78,0,0,1-.33,2.19,3.24,3.24,0,0,1-.57-.4l-.6-.44-1.14-.87L15,16.47c-.4-.32-.79-.58-1.18-.91l-2.27-1.74c-.38-.31-.75-.56-1.14-.87a8.12,8.12,0,0,0-1.24-.83c.08.33,3.45,5.47,3.92,6.19l4.8,7.5C18.12,26.22,18,26.17,18.21,26.24Z"/><path class="cls-1" d="M41.92,18.47h9V16.39c0-.15,0-.19-.19-.19H45V13.54c0-.15,0-.19.2-.19h5.37V11.27c0-.15,0-.19-.19-.19H45V8.62H50.6c.15,0,.19,0,.19-.2V6.35H41.92Z"/><path class="cls-1" d="M52.67,9.46c0,2.08.77,2.83,2.53,3.69.87.43,3.63,1.07,3.63,2.08,0,1.41-2,1.23-3,1a7.83,7.83,0,0,1-2-.86c-.33-.19-.58-.38-.89-.54v2.65c2.12,1.12,5.43,1.81,7.52.33a3.23,3.23,0,0,0,1.49-3.18c0-2-2-3-3.56-3.57-.28-.1-.55-.22-.84-.32C57,10.54,55.29,9.93,55.93,9c.81-1.16,3.63-.24,4.61.15a5.75,5.75,0,0,0,.88.35V7.13a10.66,10.66,0,0,0-1.88-.65c-1.72-.43-3.86-.53-5.39.5A3,3,0,0,0,52.67,9.46Z"/><polygon class="cls-1" points="63.04 8.62 67.38 8.62 67.38 18.46 70.49 18.46 70.49 8.62 74.83 8.62 74.83 6.35 63.04 6.35 63.04 8.62"/></g></g></svg>