<svg xmlns="http://www.w3.org/2000/svg" viewBox="0 0 10.01 8.77"><defs><style>.cls-1{fill:#fff;fill-rule:evenodd;}</style></defs><g id="Layer_2" data-name="Layer 2"><g id="Layer_1-2" data-name="Layer 1"><path class="cls-1" d="M4.8,7.47l.08-.84c0-.24.07-.59.09-.84a9.08,9.08,0,0,1,1.27.72L8.73,8c.22.13,1.14.71,1.28.74L6.74,3.68c-.32-.54-.85-1.31-1.2-1.88a2.48,2.48,0,0,0-.33-.46L5.08,2.51A6.15,6.15,0,0,1,4.9,3.67a3.21,3.21,0,0,1-.3-.21l-.32-.24-.6-.46-.6-.46-.62-.48L1.26.9.66.44A5.82,5.82,0,0,0,0,0C0,.18,1.82,2.9,2.07,3.28l2.54,4C4.75,7.46,4.69,7.43,4.8,7.47Z"/></g></g></svg>