<svg xmlns="http://www.w3.org/2000/svg" viewBox="0 0 10.98 11"><defs><style>.cls-1{fill:#231f20;fill-rule:evenodd;}</style></defs><g id="Layer_2" data-name="Layer 2"><g id="Layer_1-2" data-name="Layer 1"><path class="cls-1" d="M4.48,2.3A3.28,3.28,0,0,1,8.71,4.45,3.43,3.43,0,0,1,6.58,8.7C2.43,10.09,0,3.87,4.48,2.3Zm3.8.05c.8,1.19,2.38-.32,1.21-1.12C8.63.64,7.7,1.48,8.28,2.35ZM.07,8.29c.09,1.89,1,2.51,2.85,2.64a43.56,43.56,0,0,0,5.36,0c1.87-.17,2.51-1.05,2.63-2.94a41.51,41.51,0,0,0,0-5.35C10.7.75,9.83.14,8,.06a49.48,49.48,0,0,0-5.31,0C.86.21.13,1.14.05,3S0,6.59.07,8.29Z"/><path class="cls-1" d="M5,3.36A2.19,2.19,0,1,0,7.59,4.94,2.19,2.19,0,0,0,5,3.36Z"/></g></g></svg>