<svg xmlns="http://www.w3.org/2000/svg" viewBox="0 0 12.03 11.96"><defs><style>.cls-1{fill:#231f20;fill-rule:evenodd;}</style></defs><g id="Layer_2" data-name="Layer 2"><g id="Layer_1-2" data-name="Layer 1"><path class="cls-1" d="M9.63,7.56c.08,2.79-3.44,1.79-5.11.12A6.91,6.91,0,0,1,2.67,5.19c-.31-.9-.25-2.55,1.5-2.44,1.24,2.33.58,1.91.19,2.69A4.12,4.12,0,0,0,7.13,7.69l.53-.87a4.66,4.66,0,0,1,2,.74ZM.45,11.65c.81-.21,1.73-.77,2.53-.52a8.37,8.37,0,0,0,2.49.8c5.87.57,8.71-6.87,4.66-10.34A6.45,6.45,0,0,0,5.51,0,6,6,0,0,0,.08,7a6.53,6.53,0,0,0,.86,2.2C1.25,9.86.65,10.86.45,11.65Z"/></g></g></svg>